<?xml version="1.0" encoding="UTF-8"?>
<svg id="Layer_2" data-name="Layer 2" xmlns="http://www.w3.org/2000/svg" viewBox="0 0 394.36 322.81">
  <defs>
    <style>
      .cls-1 {
        fill: #fff;
        stroke-width: 0px;
      }
    </style>
  </defs>
  <g id="Layer_1-2" data-name="Layer 1">
    <g>
      <path class="cls-1" d="M366.75,63.93s34.55,3.9,26.35,48.08c-8.2,44.18-21.2,124.77-68.42,158.99s-76.08,54.2-130.97,51.58-104.77-23.54-139.62-59.22S10.57,194.32,9.27,177.86c-1.3-16.46-11.04-34.96-8.99-54.52,2.05-19.56,13.61-24.08,30.36-26.58,16.75-2.51,31.57,2.61,43.01,29.51,11.44,26.9,13.96,74.33,38.3,97.96,24.34,23.62,61.25,41.58,113.16,28.59,51.91-12.99,67.94-56.31,72.7-85.34,4.77-29.03,18.29-121.7,68.93-103.53Z"/>
      <path class="cls-1" d="M158.98,141.5s-35.49,4.5-47.11-44.56,27.64-80.84,39.42-74.48c11.78,6.36,35,14.06,40.29,59.17,5.29,45.11-20.22,61.2-32.6,59.87Z"/>
      <path class="cls-1" d="M236.08,126.25s-30.95-1.19-32.26-45.85C202.5,35.75,219.5-1.82,242.41.07s34.77,20.99,34.48,58.01c-.3,37.02-4.2,66.82-40.81,68.17Z"/>
    </g>
  </g>
</svg>